<svg xmlns="http://www.w3.org/2000/svg" xmlns:xlink="http://www.w3.org/1999/xlink" viewBox="0 0 807 807" width="75" height="75">
    <path d="M8 8.9h790.1V799H8z" fill="#005ea4"/>
    <path d="M8 8.9h790.1V799H8V8.9zM0 807h806.1V.9H0V807z" fill="#fff"/>
    <path d="M403.1 53.5c-193.5 0-350.4 157-350.4 350.5 0 193.4 157 350.3 350.4 350.3 193.5 0 350.4-157 350.4-350.3 0-193.5-157-350.5-350.4-350.5" fill="#fff200" />
    <path d="M381.3 413.8L319.5 352l-71.4 71.4v24l18-18.1 49.7 49.9-18.3 18.4 11.9 12 99.6-99.7V386l-27.7 27.8" fill="#ec1f26"/>
    <path d="M92.5 338.9h110.2v23.8h-18.4v76.9l63.8-35.5v65.1H92.5v-23.9h18.4v-82.6H92.5v-23.8M557.1 338.9v23.8h18.5v82.6h-18.5v23.9h155.7v-65.1l-63.9 35.5v-76.9h18.5v-23.8H557.1" fill="#005ea4"/>
    <path d="M310.3 264.9c21.7 0 39.2 17.5 39.2 39.1 0 21.7-17.6 39.2-39.2 39.2s-39.2-17.6-39.2-39.2c0-21.7 17.6-39.1 39.2-39.1" fill="#ec1f26"/>
    <path d="M403.1 29.8C196.6 29.8 29 197.4 29 404c0 206.5 167.6 374 374.1 374s374.1-167.5 374.1-374c0-206.6-167.6-374.2-374.1-374.2m0 724.6c-193.5 0-350.4-157-350.4-350.3 0-193.6 157-350.5 350.4-350.5 193.5 0 350.4 157 350.4 350.5 0 193.3-157 350.3-350.4 350.3z" fill="#ec1f26"/>
    <path d="M495.7 338.9H390.6v23.8H409v82.6h-18.4v23.9h105.1c77.7 0 78.5-130.3 0-130.3" fill="#005ea4"/>
    <path d="M480.9 428.5h-5.2v-49.2h4.4c23 .1 23 49.3.8 49.2" fill="#fff200" />
</svg>
